<svg width="512" height="357" viewBox="0 0 512 357" fill="none" xmlns="http://www.w3.org/2000/svg">
<path fill-rule="evenodd" clip-rule="evenodd" d="M59.0781 0C26.5393 0 0 22.8854 0 50.9442V306.056C0 334.115 26.5393 357 59.0781 357H452.922C485.461 357 512 334.115 512 306.056V50.9442C512 22.8854 485.461 0 452.922 0H59.0781ZM59.0781 18.971H452.922C473.653 18.971 490 33.0672 490 50.9442V306.056C490 323.933 473.653 338.029 452.922 338.029H59.0781C38.3469 338.029 22 323.933 22 306.056V50.9442C22 33.0672 38.3469 18.971 59.0781 18.971Z" fill="black"/>
<path d="M409.018 98.1943L266.206 206.944C264.879 207.955 263.304 208.758 261.571 209.305C259.837 209.852 257.978 210.134 256.102 210.134C254.225 210.134 252.367 209.852 250.633 209.305C248.899 208.758 247.324 207.955 245.998 206.944L103.185 98.1943C100.505 96.1537 99 93.386 99 90.5002C99 87.6144 100.505 84.8467 103.185 82.8061C105.865 80.7655 109.499 79.6191 113.289 79.6191C117.079 79.6191 120.713 80.7655 123.393 82.8061L256.102 183.876L388.81 82.8061C390.137 81.7957 391.712 80.9942 393.446 80.4474C395.18 79.9006 397.038 79.6191 398.914 79.6191C400.791 79.6191 402.649 79.9006 404.382 80.4474C406.116 80.9942 407.691 81.7957 409.018 82.8061C410.345 83.8165 411.398 85.016 412.116 86.3362C412.834 87.6563 413.203 89.0713 413.203 90.5002C413.203 91.9291 412.834 93.344 412.116 94.6642C411.398 95.9843 410.345 97.1839 409.018 98.1943Z" fill="black"/>
</svg>
